<svg width="138" height="138" viewBox="0 0 138 138" fill="none" xmlns="http://www.w3.org/2000/svg">
    <g filter="url(#b9abekvlna)">
        <circle cx="69" cy="65" r="45" fill="#fff"/>
    </g>
    <path fill-rule="evenodd" clip-rule="evenodd" d="M54 74a6.003 6.003 0 0 0-4.243 1.757A6.003 6.003 0 0 0 48 80v3a1 1 0 0 0 1 1h10a1 1 0 0 0 1-1v-3a6.003 6.003 0 0 0-1.757-4.243A6.003 6.003 0 0 0 54 74zM84 74a6.003 6.003 0 0 0-4.243 1.757A6.003 6.003 0 0 0 78 80v3a1 1 0 0 0 1 1h10a1 1 0 0 0 1-1v-3a6.003 6.003 0 0 0-1.757-4.243A6.003 6.003 0 0 0 84 74zM69 70a7 7 0 0 0-7 7v6a1 1 0 0 0 1 1h12a1 1 0 0 0 1-1v-6a7 7 0 0 0-7-7zM84 62a6 6 0 0 0-10.299-4.185 6.998 6.998 0 0 1-.866 11.041 9.016 9.016 0 0 1 4.937 6.123 7.992 7.992 0 0 1 2.674-2.146A5.993 5.993 0 0 1 78 68c0-3.311 2.689-6 6-6zM64.299 57.815A6 6 0 0 0 54 62c3.311 0 6 2.689 6 6 0 1.982-.963 3.74-2.446 4.833a7.992 7.992 0 0 1 2.674 2.146 9.016 9.016 0 0 1 4.937-6.123 6.998 6.998 0 0 1-.866-11.041z" fill="#002669"/>
    <path fill-rule="evenodd" clip-rule="evenodd" d="M84 72c-2.208 0-4-1.792-4-4s1.792-4 4-4 4 1.792 4 4-1.792 4-4 4zM54.052 72H54c-2.208 0-4-1.792-4-4s1.792-4 4-4 4 1.792 4 4a4.002 4.002 0 0 1-3.948 4z" fill="#002669"/>
    <path d="M69 68a5 5 0 1 0 0-10 5 5 0 0 0 0 10zM60 54a4 4 0 1 0 0-8 4 4 0 0 0 0 8zM78 54a4 4 0 1 0 0-8 4 4 0 0 0 0 8z" fill="#002669"/>
    <defs>
        <filter id="b9abekvlna" x="0" y="0" width="138" height="138" filterUnits="userSpaceOnUse" color-interpolation-filters="sRGB">
            <feFlood flood-opacity="0" result="BackgroundImageFix"/>
            <feColorMatrix in="SourceAlpha" values="0 0 0 0 0 0 0 0 0 0 0 0 0 0 0 0 0 0 127 0" result="hardAlpha"/>
            <feOffset dy="4"/>
            <feGaussianBlur stdDeviation="12"/>
            <feComposite in2="hardAlpha" operator="out"/>
            <feColorMatrix values="0 0 0 0 0 0 0 0 0 0 0 0 0 0 0 0 0 0 0.07 0"/>
            <feBlend in2="BackgroundImageFix" result="effect1_dropShadow_112_347"/>
            <feBlend in="SourceGraphic" in2="effect1_dropShadow_112_347" result="shape"/>
        </filter>
    </defs>
</svg>
