<svg width="24" height="25" viewBox="0 0 24 25" fill="none" xmlns="http://www.w3.org/2000/svg">
    <rect y=".5" width="24" height="24" rx="4" fill="#002669"/>
    <g clip-path="url(#qxb6yxbb7a)" fill="#fff">
        <path d="M18.388 9.323h-.952c-.809-1.92-2.59-3.317-4.64-3.584a5.888 5.888 0 0 0-5.337 2.087 5.954 5.954 0 0 0-.911 1.497h-.936c-.75 0-1.362.611-1.362 1.362v1.817c0 .751.611 1.362 1.362 1.362h1.865l-.195-.596c-.568-1.734-.248-3.507.877-4.862a4.992 4.992 0 0 1 4.518-1.766c1.824.237 3.407 1.527 4.035 3.287l.003.01c.101.269.172.545.213.83.136.848.059 1.71-.224 2.488l-.002.006a4.985 4.985 0 0 1-4.693 3.328c-.756 0-1.371.61-1.371 1.362 0 .751.61 1.362 1.362 1.362.751 0 1.362-.61 1.362-1.362v-.612a5.896 5.896 0 0 0 4.068-3.475h.958c.75 0 1.362-.611 1.362-1.362v-1.817c0-.75-.611-1.362-1.362-1.362z"/>
        <path d="M7.913 14.772v.909H12a4.091 4.091 0 0 0 4.087-4.087A4.091 4.091 0 0 0 12 7.507a4.091 4.091 0 0 0-4.087 4.087c0 .918.309 1.806.873 2.524a.903.903 0 0 1-.873.654zm5.45-3.633h.908v.909h-.909v-.909zm-1.817 0h.908v.909h-.908v-.909zm-1.817 0h.909v.909h-.909v-.909z"/>
    </g>
    <defs>
        <clipPath id="qxb6yxbb7a">
            <path fill="#fff" transform="translate(4.25 4.75)" d="M0 0h15.5v15.5H0z"/>
        </clipPath>
    </defs>
</svg>
