<svg width="92" height="93" viewBox="0 0 92 93" fill="none" xmlns="http://www.w3.org/2000/svg">
    <g filter="url(#4gq9zba42a)">
        <circle cx="46" cy="44" r="30" fill="#fff"/>
    </g>
    <g clip-path="url(#1b1voiupxb)" fill="#002669">
        <path d="M41.578 43.926a5.543 5.543 0 0 0-5.537 5.537A5.543 5.543 0 0 0 41.578 55a5.543 5.543 0 0 0 5.537-5.537 5.543 5.543 0 0 0-5.537-5.537zm2.445 4.864-2.871 2.872a.613.613 0 0 1-.87 0l-1.23-1.23a.615.615 0 1 1 .87-.871l.795.795 2.436-2.436a.615.615 0 0 1 .87.87z"/>
        <path d="M52.242 39.332a.615.615 0 0 1-.615-.615V34h-8.818a1.848 1.848 0 0 0-1.846 1.846v6.878a6.757 6.757 0 0 1 5.832 2.433h6.678a.615.615 0 0 1 0 1.23h-5.868c.385.75.633 1.581.712 2.46h5.156a.615.615 0 0 1 0 1.231h-5.156A6.77 6.77 0 0 1 45.465 55h9.648a1.848 1.848 0 0 0 1.846-1.846V39.332h-4.717zm1.23 3.363H44.45a.615.615 0 1 1 0-1.23h9.024a.615.615 0 0 1 0 1.23z"/>
        <path d="M52.857 34.36v3.742H56.6l-3.742-3.742z"/>
    </g>
    <defs>
        <clipPath id="1b1voiupxb">
            <path fill="#fff" transform="translate(36 34)" d="M0 0h21v21H0z"/>
        </clipPath>
        <filter id="4gq9zba42a" x="0" y=".667" width="92" height="92" filterUnits="userSpaceOnUse" color-interpolation-filters="sRGB">
            <feFlood flood-opacity="0" result="BackgroundImageFix"/>
            <feColorMatrix in="SourceAlpha" values="0 0 0 0 0 0 0 0 0 0 0 0 0 0 0 0 0 0 127 0" result="hardAlpha"/>
            <feOffset dy="2.667"/>
            <feGaussianBlur stdDeviation="8"/>
            <feComposite in2="hardAlpha" operator="out"/>
            <feColorMatrix values="0 0 0 0 0 0 0 0 0 0 0 0 0 0 0 0 0 0 0.07 0"/>
            <feBlend in2="BackgroundImageFix" result="effect1_dropShadow_112_388"/>
            <feBlend in="SourceGraphic" in2="effect1_dropShadow_112_388" result="shape"/>
        </filter>
    </defs>
</svg>
