<svg width="92" height="93" viewBox="0 0 92 93" fill="none" xmlns="http://www.w3.org/2000/svg">
    <g filter="url(#a2jn9pj1ma)">
        <circle cx="46" cy="44" r="30" fill="#fff"/>
    </g>
    <g clip-path="url(#qjz2500tkb)">
        <path d="M46.5 32.334c-6.341 0-11.5 5.158-11.5 11.5 0 6.34 5.159 11.5 11.5 11.5s11.5-5.16 11.5-11.5c0-6.342-5.159-11.5-11.5-11.5zm6.603 9.557-7.224 7.225a1.616 1.616 0 0 1-1.15.476c-.435 0-.843-.169-1.15-.476l-3.682-3.682a1.615 1.615 0 0 1-.477-1.15c0-.435.17-.843.477-1.15a1.615 1.615 0 0 1 1.15-.477c.434 0 .842.17 1.15.477l2.531 2.532 6.075-6.075a1.615 1.615 0 0 1 1.15-.476 1.628 1.628 0 0 1 1.15 2.776z" fill="#002669"/>
    </g>
    <defs>
        <clipPath id="qjz2500tkb">
            <path fill="#fff" transform="translate(35 32.334)" d="M0 0h23v23H0z"/>
        </clipPath>
        <filter id="a2jn9pj1ma" x="0" y=".667" width="92" height="92" filterUnits="userSpaceOnUse" color-interpolation-filters="sRGB">
            <feFlood flood-opacity="0" result="BackgroundImageFix"/>
            <feColorMatrix in="SourceAlpha" values="0 0 0 0 0 0 0 0 0 0 0 0 0 0 0 0 0 0 127 0" result="hardAlpha"/>
            <feOffset dy="2.667"/>
            <feGaussianBlur stdDeviation="8"/>
            <feComposite in2="hardAlpha" operator="out"/>
            <feColorMatrix values="0 0 0 0 0 0 0 0 0 0 0 0 0 0 0 0 0 0 0.07 0"/>
            <feBlend in2="BackgroundImageFix" result="effect1_dropShadow_112_380"/>
            <feBlend in="SourceGraphic" in2="effect1_dropShadow_112_380" result="shape"/>
        </filter>
    </defs>
</svg>
