<svg width="24" height="25" viewBox="0 0 24 25" fill="none" xmlns="http://www.w3.org/2000/svg">
    <rect y=".5" width="24" height="24" rx="4" fill="#002669"/>
    <g clip-path="url(#qq82al0mja)" fill="#fff">
        <path d="M11.412 8.263a1.379 1.379 0 1 0 0-2.758 1.379 1.379 0 0 0 0 2.758zM13.542 16.074a3.051 3.051 0 0 1-2.926 2.205 3.051 3.051 0 0 1-3.049-3.047 3.05 3.05 0 0 1 1.822-2.788v-1.292a4.268 4.268 0 0 0-3.035 4.08 4.267 4.267 0 0 0 4.262 4.262 4.264 4.264 0 0 0 3.865-2.479L14 16.07c-.135 0-.292.002-.458.004z"/>
        <path d="m17.558 17.71-1.846-3.63a.808.808 0 0 0-.721-.442h-2.365v-.54h2.035a.596.596 0 0 0 .485-.259.593.593 0 0 0 .122-.348.607.607 0 0 0-.607-.607h-2.035v-1.829c0-.503-.373-1.214-1.214-1.214-.67 0-1.214.544-1.214 1.214v3.963c0 .684.555 1.238 1.239 1.238h3.057l1.622 3.188a.809.809 0 1 0 1.442-.734z"/>
    </g>
    <defs>
        <clipPath id="qq82al0mja">
            <path fill="#fff" transform="translate(5.006 5.506)" d="M0 0h13.987v13.987H0z"/>
        </clipPath>
    </defs>
</svg>
