<svg width="92" height="93" viewBox="0 0 92 93" fill="none" xmlns="http://www.w3.org/2000/svg">
    <g filter="url(#jlf1n7p3la)">
        <circle cx="46" cy="44" r="30" fill="#fff"/>
    </g>
    <path d="M47.447 43.706c0 .07-.004.14-.012.21l-.671-.26c-.698-.279-1.374.422-1.104 1.092l.3.782a1.866 1.866 0 1 1-.379-3.69c1.03 0 1.866.837 1.866 1.866z" fill="#002669"/>
    <path d="M44.787 31.261c-6.138.386-11.137 5.385-11.523 11.527-.444 6.98 4.962 12.834 11.783 13.131a.525.525 0 0 0 .536-.527v-1.663c0-.28-.214-.519-.494-.536-5.08-.255-9.128-4.467-9.128-9.609 0-5.305 4.313-9.626 9.622-9.626 5.146 0 9.354 4.053 9.613 9.132a.531.531 0 0 0 .532.494h1.662c.298 0 .54-.247.528-.54-.293-6.817-6.147-12.222-13.13-11.783z" fill="#002669"/>
    <path d="M44.779 36.575c-3.228.36-5.841 2.972-6.201 6.2a7.06 7.06 0 0 0 6.427 7.835.53.53 0 0 0 .578-.528v-1.675a.526.526 0 0 0-.47-.523 4.332 4.332 0 0 1-3.78-5.125 4.313 4.313 0 0 1 3.43-3.43 4.335 4.335 0 0 1 5.124 3.782c.03.25.226.448.473.469.013.004.03.004.046.004h1.68c.31 0 .552-.268.527-.578a7.065 7.065 0 0 0-7.834-6.431z" fill="#002669"/>
    <path d="M44.789 31.26c-6.141.388-11.139 5.386-11.526 11.527-.44 6.982 4.964 12.836 11.782 13.13a.524.524 0 0 0 .54-.527v-1.662a.53.53 0 0 0-.495-.534c-5.08-.258-9.13-4.468-9.13-9.611 0-5.305 4.315-9.625 9.624-9.625 5.143 0 9.354 4.054 9.612 9.13a.53.53 0 0 0 .534.495h1.662c.295 0 .54-.244.527-.54-.294-6.818-6.148-12.223-13.13-11.782z" fill="#002669"/>
    <path d="M44.779 36.576c-3.23.36-5.841 2.97-6.201 6.2a7.06 7.06 0 0 0 6.428 7.834.532.532 0 0 0 .578-.526v-1.678a.524.524 0 0 0-.47-.52 4.337 4.337 0 0 1-3.782-5.126 4.32 4.32 0 0 1 3.43-3.43 4.337 4.337 0 0 1 5.126 3.782c.029.267.252.47.52.47h1.678c.31 0 .551-.268.526-.578a7.06 7.06 0 0 0-7.834-6.428z" fill="#002669"/>
    <path d="M58.68 48.94c-.043-.035.577.211-12.147-4.711a.228.228 0 0 0-.297.297c4.728 12.25 4.641 12.078 4.703 12.155a.23.23 0 0 0 .395-.07l1.861-5.275a.235.235 0 0 1 .14-.14l5.275-1.861c.183-.066.195-.29.07-.395zm-8.87-1.634a.308.308 0 0 1-.4.177l-.524-.203a.308.308 0 1 1 .222-.576l.525.203c.16.062.238.24.177.4zm4.809 1.86a.308.308 0 0 1-.4.177l-3.487-1.349a.308.308 0 1 1 .223-.576l3.487 1.35c.16.061.238.24.177.399z" fill="#002669"/>
    <defs>
        <filter id="jlf1n7p3la" x="0" y=".667" width="92" height="92" filterUnits="userSpaceOnUse" color-interpolation-filters="sRGB">
            <feFlood flood-opacity="0" result="BackgroundImageFix"/>
            <feColorMatrix in="SourceAlpha" values="0 0 0 0 0 0 0 0 0 0 0 0 0 0 0 0 0 0 127 0" result="hardAlpha"/>
            <feOffset dy="2.667"/>
            <feGaussianBlur stdDeviation="8"/>
            <feComposite in2="hardAlpha" operator="out"/>
            <feColorMatrix values="0 0 0 0 0 0 0 0 0 0 0 0 0 0 0 0 0 0 0.07 0"/>
            <feBlend in2="BackgroundImageFix" result="effect1_dropShadow_112_410"/>
            <feBlend in="SourceGraphic" in2="effect1_dropShadow_112_410" result="shape"/>
        </filter>
    </defs>
</svg>
