<svg width="24" height="25" viewBox="0 0 24 25" fill="none" xmlns="http://www.w3.org/2000/svg">
    <rect y=".5" width="24" height="24" rx="4" fill="#002669"/>
    <path d="M19.2 14.395h-1.312v-1.839a.3.3 0 0 0-.3-.3h-5.287v-1.65h1.313c.165 0 .3-.133.3-.3V7.08a.3.3 0 0 0-.3-.3H10.39c-.168 0-.3.135-.3.3v3.224c0 .168.132.3.3.3h1.312v1.651H6.413a.3.3 0 0 0-.3.3v1.839H4.8a.3.3 0 0 0-.3.3v3.224a.3.3 0 0 0 .3.3h3.225a.3.3 0 0 0 .3-.3v-3.225a.3.3 0 0 0-.3-.3H6.713v-1.538h4.988v1.539h-1.312c-.168 0-.3.135-.3.3v3.224c0 .165.132.3.3.3h3.225a.3.3 0 0 0 .3-.3v-3.225a.3.3 0 0 0-.3-.3h-1.313v-1.538h4.987v1.539h-1.313a.3.3 0 0 0-.3.3v3.224a.3.3 0 0 0 .3.3H19.2a.3.3 0 0 0 .3-.3v-3.225a.3.3 0 0 0-.3-.3z" fill="#fff"/>
</svg>
