<svg width="24" height="25" viewBox="0 0 24 25" fill="none" xmlns="http://www.w3.org/2000/svg">
    <rect y=".5" width="24" height="24" rx="4" fill="#002669"/>
    <g clip-path="url(#4dou74u3ea)">
        <path d="M10.667 20.5c1.207 0 2.217-.86 2.449-2H8.217c.232 1.14 1.242 2 2.45 2zM15.717 14.164c-.017 0-.033.003-.05.003a5.34 5.34 0 0 1-5.334-5.334 5.3 5.3 0 0 1 1-3.097v-.57a.667.667 0 1 0-1.333 0v.72A4.67 4.67 0 0 0 6 10.5v1.859a4.47 4.47 0 0 1-1.592 3.422 1.168 1.168 0 0 0 .759 2.053h11a1.168 1.168 0 0 0 .752-2.059 4.472 4.472 0 0 1-1.202-1.611z" fill="#fff"/>
        <path d="M15.667 4.5a4.338 4.338 0 0 0-4.333 4.333 4.338 4.338 0 0 0 4.333 4.334A4.338 4.338 0 0 0 20 8.833 4.338 4.338 0 0 0 15.667 4.5zm.667 5.833a.5.5 0 0 1-1 0V8.167H15a.5.5 0 0 1 0-1h.834a.5.5 0 0 1 .5.5v2.666z" fill="#2796F7"/>
    </g>
    <defs>
        <clipPath id="4dou74u3ea">
            <path fill="#fff" transform="translate(4 4.5)" d="M0 0h16v16H0z"/>
        </clipPath>
    </defs>
</svg>
